# This file uses centimeters as units for non-parametric coordinates.

mtllib apshell.mtl
g default
v 0.158432 6.001150 -0.051478
v 0.134771 6.001150 -0.097917
v 0.097917 6.001150 -0.134771
v 0.051478 6.001150 -0.158433
v -0.000000 6.001150 -0.166586
v -0.051478 6.001150 -0.158433
v -0.097917 6.001150 -0.134771
v -0.134771 6.001150 -0.097917
v -0.158433 6.001150 -0.051478
v -0.166586 6.001150 0.000000
v -0.158433 6.001150 0.051478
v -0.134771 6.001150 0.097917
v -0.097917 6.001150 0.134771
v -0.051478 6.001150 0.158433
v -0.000000 6.001150 0.166586
v 0.051477 6.001150 0.158433
v 0.097917 6.001150 0.134771
v 0.134770 6.001150 0.097917
v 0.158432 6.001150 0.051478
v 0.166585 6.001150 0.000000
v 0.000000 0.337289 0.000000
v 0.000000 6.160855 0.000000
v 0.951057 0.831082 -0.309017
v 0.887355 0.584185 -0.288319
v 0.713317 0.403444 -0.231771
v 0.475578 0.337289 -0.154525
v 0.809018 0.831082 -0.587786
v 0.754829 0.584185 -0.548415
v 0.606784 0.403444 -0.440854
v 0.404551 0.337289 -0.293923
v 0.587786 0.831082 -0.809017
v 0.548416 0.584185 -0.754829
v 0.440854 0.403444 -0.606784
v 0.293923 0.337289 -0.404551
v 0.309017 0.831082 -0.951057
v 0.288319 0.584185 -0.887355
v 0.231771 0.403444 -0.713317
v 0.154525 0.337289 -0.475578
v 0.000000 0.831082 -1.000000
v 0.000000 0.584185 -0.933020
v 0.000000 0.403444 -0.750026
v 0.000000 0.337289 -0.500052
v -0.309017 0.831082 -0.951057
v -0.288319 0.584185 -0.887355
v -0.231771 0.403444 -0.713317
v -0.154524 0.337289 -0.475578
v -0.587785 0.831082 -0.809017
v -0.548415 0.584185 -0.754829
v -0.440854 0.403444 -0.606784
v -0.293923 0.337289 -0.404550
v -0.809017 0.831082 -0.587785
v -0.754829 0.584185 -0.548415
v -0.606784 0.403444 -0.440854
v -0.404550 0.337289 -0.293923
v -0.951057 0.831082 -0.309017
v -0.887355 0.584185 -0.288319
v -0.713317 0.403444 -0.231771
v -0.475577 0.337289 -0.154525
v -1.000000 0.831082 0.000000
v -0.933020 0.584185 0.000000
v -0.750026 0.403444 0.000000
v -0.500052 0.337289 0.000000
v -0.951057 0.831082 0.309017
v -0.887355 0.584185 0.288319
v -0.713317 0.403444 0.231771
v -0.475577 0.337289 0.154524
v -0.809017 0.831082 0.587785
v -0.754829 0.584185 0.548415
v -0.606784 0.403444 0.440854
v -0.404550 0.337289 0.293923
v -0.587785 0.831082 0.809017
v -0.548415 0.584185 0.754829
v -0.440854 0.403444 0.606784
v -0.293923 0.337289 0.404550
v -0.309017 0.831082 0.951057
v -0.288319 0.584185 0.887354
v -0.231771 0.403444 0.713317
v -0.154524 0.337289 0.475577
v -0.000000 0.831082 1.000000
v -0.000000 0.584185 0.933020
v -0.000000 0.403444 0.750026
v -0.000000 0.337289 0.500052
v 0.309017 0.831082 0.951057
v 0.288319 0.584185 0.887354
v 0.231771 0.403444 0.713317
v 0.154524 0.337289 0.475577
v 0.587785 0.831082 0.809017
v 0.548415 0.584185 0.754829
v 0.440854 0.403444 0.606784
v 0.293923 0.337289 0.404550
v 0.809017 0.831082 0.587785
v 0.754829 0.584185 0.548415
v 0.606784 0.403444 0.440854
v 0.404550 0.337289 0.293923
v 0.951057 0.831082 0.309017
v 0.887354 0.584185 0.288319
v 0.713317 0.403444 0.231771
v 0.475577 0.337289 0.154524
v 1.000000 0.831082 0.000000
v 0.933020 0.584185 -0.000000
v 0.750026 0.403444 -0.000000
v 0.500051 0.337289 -0.000000
v -0.383543 5.611517 -0.278660
v -0.278660 5.611517 -0.383543
v -0.146500 5.611517 -0.450881
v -0.000000 5.611517 -0.474084
v 0.146500 5.611517 -0.450881
v 0.278660 5.611517 -0.383543
v 0.383542 5.611517 -0.278660
v 0.450881 5.611517 -0.146500
v 0.474084 5.611517 -0.000000
v 0.450881 5.611517 0.146500
v 0.383542 5.611517 0.278660
v 0.278660 5.611517 0.383542
v 0.146500 5.611517 0.450881
v -0.000000 5.611517 0.474084
v -0.146500 5.611517 0.450881
v -0.278660 5.611517 0.383542
v -0.383543 5.611517 0.278660
v -0.450881 5.611517 0.146500
v -0.474084 5.611517 -0.000000
v -0.450881 5.611517 -0.146500
v -0.262800 4.949183 -0.808814
v -0.000000 4.949183 -0.850437
v 0.262800 4.949183 -0.808814
v 0.499875 4.949183 -0.688018
v 0.688018 4.949183 -0.499875
v 0.808814 4.949183 -0.262800
v 0.850437 4.949183 -0.000000
v 0.808814 4.949183 0.262799
v 0.688018 4.949183 0.499874
v 0.499874 4.949183 0.688018
v 0.262799 4.949183 0.808814
v -0.000000 4.949183 0.850437
v -0.262800 4.949183 0.808814
v -0.499874 4.949183 0.688018
v -0.688018 4.949183 0.499874
v -0.808814 4.949183 0.262799
v -0.850437 4.949183 -0.000000
v -0.808814 4.949183 -0.262800
v -0.688018 4.949183 -0.499874
v -0.499874 4.949183 -0.688018
v 0.809017 4.239608 0.587785
v 0.587785 4.239608 0.809017
v 0.309017 4.239608 0.951057
v -0.000000 4.239608 1.000000
v -0.309017 4.239608 0.951057
v -0.587785 4.239608 0.809017
v -0.809017 4.239608 0.587785
v -0.951057 4.239608 0.309017
v -1.000000 4.239608 0.000000
v -0.951057 4.239608 -0.309017
v -0.809017 4.239608 -0.587785
v -0.587785 4.239608 -0.809017
v -0.309017 4.239608 -0.951057
v 0.000000 4.239608 -1.000000
v 0.309017 4.239608 -0.951057
v 0.587786 4.239608 -0.809018
v 0.809018 4.239608 -0.587786
v 0.951057 4.239608 -0.309017
v 1.000000 4.239608 0.000000
v 0.951056 4.239608 0.309017
vt 0.648603 0.795466
vt 0.626409 0.751908
vt 0.591842 0.717341
vt 0.548284 0.695147
vt 0.500000 0.687500
vt 0.451716 0.695147
vt 0.408159 0.717341
vt 0.373591 0.751909
vt 0.351397 0.795466
vt 0.343750 0.843750
vt 0.351397 0.892034
vt 0.373591 0.935591
vt 0.408159 0.970159
vt 0.451716 0.992353
vt 0.500000 1.000000
vt 0.548284 0.992353
vt 0.591841 0.970159
vt 0.626409 0.935591
vt 0.648603 0.892034
vt 0.656250 0.843750
vt 0.500000 0.837500
vt 0.387500 0.405318
vt 0.375000 0.688440
vt 0.400000 0.405318
vt 0.387500 0.688440
vt 0.412500 0.405318
vt 0.400000 0.688440
vt 0.425000 0.405318
vt 0.412500 0.688440
vt 0.437500 0.405318
vt 0.425000 0.688440
vt 0.450000 0.405318
vt 0.437500 0.688440
vt 0.462500 0.405318
vt 0.450000 0.688440
vt 0.475000 0.405318
vt 0.462500 0.688440
vt 0.487500 0.405318
vt 0.475000 0.688440
vt 0.500000 0.405318
vt 0.487500 0.688440
vt 0.512500 0.405318
vt 0.500000 0.688440
vt 0.525000 0.405318
vt 0.512500 0.688440
vt 0.537500 0.405318
vt 0.525000 0.688440
vt 0.550000 0.405318
vt 0.537500 0.688440
vt 0.562500 0.405318
vt 0.550000 0.688440
vt 0.575000 0.405318
vt 0.562500 0.688440
vt 0.587500 0.405318
vt 0.575000 0.688440
vt 0.600000 0.405318
vt 0.587500 0.688440
vt 0.612500 0.405318
vt 0.600000 0.688440
vt 0.625000 0.405318
vt 0.625000 0.688440
vt 0.612500 0.688440
vt 0.574309 0.128981
vt 0.563211 0.107200
vt 0.545926 0.089914
vt 0.524145 0.078816
vt 0.500000 0.074992
vt 0.475856 0.078816
vt 0.454075 0.089914
vt 0.436789 0.107200
vt 0.425691 0.128981
vt 0.421867 0.153125
vt 0.425691 0.177270
vt 0.436789 0.199051
vt 0.454075 0.216336
vt 0.475856 0.227434
vt 0.500000 0.231258
vt 0.524144 0.227434
vt 0.545925 0.216336
vt 0.563211 0.199051
vt 0.574309 0.177270
vt 0.500000 0.150000
vt 0.578133 0.153125
vt 0.375000 0.405318
vt 0.625000 0.359034
vt 0.375000 0.359034
vt 0.625000 0.312500
vt 0.648603 0.107966
vt 0.375000 0.312500
vt 0.387500 0.361415
vt 0.626409 0.064408
vt 0.387500 0.312500
vt 0.400000 0.361957
vt 0.591842 0.029841
vt 0.400000 0.312500
vt 0.412500 0.362081
vt 0.548284 0.007647
vt 0.412500 0.312500
vt 0.425000 0.362109
vt 0.500000 -0.000000
vt 0.425000 0.312500
vt 0.437500 0.362116
vt 0.451716 0.007647
vt 0.437500 0.312500
vt 0.450000 0.362117
vt 0.408159 0.029841
vt 0.450000 0.312500
vt 0.462500 0.362117
vt 0.373591 0.064409
vt 0.462500 0.312500
vt 0.475000 0.362117
vt 0.351397 0.107966
vt 0.475000 0.312500
vt 0.487500 0.362117
vt 0.343750 0.156250
vt 0.487500 0.312500
vt 0.500000 0.362117
vt 0.351397 0.204534
vt 0.500000 0.312500
vt 0.512500 0.362117
vt 0.373591 0.248091
vt 0.512500 0.312500
vt 0.525000 0.362117
vt 0.408159 0.282659
vt 0.525000 0.312500
vt 0.537500 0.362117
vt 0.451716 0.304853
vt 0.537500 0.312500
vt 0.550000 0.362117
vt 0.500000 0.312500
vt 0.550000 0.312500
vt 0.562500 0.362115
vt 0.548284 0.304853
vt 0.562500 0.312500
vt 0.575000 0.362109
vt 0.591841 0.282659
vt 0.575000 0.312500
vt 0.587500 0.362081
vt 0.626409 0.248091
vt 0.587500 0.312500
vt 0.600000 0.361957
vt 0.648603 0.204534
vt 0.600000 0.312500
vt 0.612500 0.361415
vt 0.656250 0.156250
vt 0.612500 0.312500
vt 0.462500 0.644702
vt 0.450000 0.644702
vt 0.437500 0.644702
vt 0.425000 0.644702
vt 0.412500 0.644702
vt 0.400000 0.644702
vt 0.387500 0.644702
vt 0.375000 0.644702
vt 0.625000 0.644702
vt 0.612500 0.644702
vt 0.600000 0.644702
vt 0.587500 0.644702
vt 0.575000 0.644702
vt 0.562500 0.644702
vt 0.550000 0.644702
vt 0.537500 0.644702
vt 0.525000 0.644702
vt 0.512500 0.644702
vt 0.500000 0.644702
vt 0.487500 0.644702
vt 0.475000 0.644702
vt 0.437500 0.611909
vt 0.425000 0.611909
vt 0.412500 0.611909
vt 0.400000 0.611909
vt 0.387500 0.611909
vt 0.375000 0.611909
vt 0.625000 0.611909
vt 0.612500 0.611909
vt 0.600000 0.611909
vt 0.587500 0.611909
vt 0.575000 0.611909
vt 0.562500 0.611909
vt 0.550000 0.611909
vt 0.537500 0.611909
vt 0.525000 0.611909
vt 0.512500 0.611909
vt 0.500000 0.611909
vt 0.487500 0.611909
vt 0.475000 0.611909
vt 0.462500 0.611909
vt 0.450000 0.611909
vt 0.587500 0.562144
vt 0.575000 0.562144
vt 0.562500 0.562144
vt 0.550000 0.562144
vt 0.537500 0.562144
vt 0.525000 0.562144
vt 0.512500 0.562144
vt 0.500000 0.562144
vt 0.487500 0.562144
vt 0.475000 0.562144
vt 0.462500 0.562144
vt 0.450000 0.562144
vt 0.437500 0.562144
vt 0.425000 0.562144
vt 0.412500 0.562144
vt 0.400000 0.562144
vt 0.387500 0.562144
vt 0.375000 0.562144
vt 0.625000 0.562144
vt 0.612500 0.562144
vt 0.600000 0.562144
vn 0.658171 0.721858 -0.213849
vn 0.559874 0.721860 -0.406767
vn 0.000001 1.000000 -0.000000
vn 0.406771 0.721860 -0.559871
vn 0.213851 0.721860 -0.658169
vn -0.000000 0.721859 -0.692040
vn -0.213852 0.721859 -0.658169
vn -0.406772 0.721859 -0.559872
vn -0.559873 0.721859 -0.406769
vn -0.658169 0.721859 -0.213853
vn -0.692040 0.721859 0.000000
vn -0.658169 0.721859 0.213853
vn -0.559874 0.721860 0.406767
vn -0.406772 0.721860 0.559870
vn -0.213851 0.721859 0.658170
vn -0.000000 0.721860 0.692040
vn 0.213851 0.721859 0.658169
vn 0.406771 0.721858 0.559873
vn 0.559874 0.721859 0.406768
vn 0.658171 0.721859 0.213849
vn 0.692042 0.721858 0.000000
vn 0.950914 -0.017314 -0.308970
vn 0.808896 -0.017314 -0.587697
vn 0.808565 0.033434 -0.587457
vn 0.950525 0.033434 -0.308843
vn 0.587697 -0.017314 -0.808896
vn 0.587456 0.033434 -0.808565
vn 0.308970 -0.017314 -0.950914
vn 0.308844 0.033434 -0.950525
vn -0.000000 -0.017314 -0.999850
vn -0.000000 0.033434 -0.999441
vn -0.308971 -0.017314 -0.950914
vn -0.308844 0.033434 -0.950525
vn -0.587697 -0.017314 -0.808896
vn -0.587457 0.033434 -0.808565
vn -0.808896 -0.017314 -0.587697
vn -0.808565 0.033434 -0.587457
vn -0.950914 -0.017314 -0.308971
vn -0.950525 0.033434 -0.308844
vn -0.999850 -0.017314 0.000000
vn -0.999441 0.033434 -0.000000
vn -0.950914 -0.017314 0.308971
vn -0.950525 0.033434 0.308844
vn -0.808896 -0.017314 0.587697
vn -0.808565 0.033434 0.587457
vn -0.587697 -0.017314 0.808896
vn -0.587457 0.033434 0.808565
vn -0.308971 -0.017314 0.950914
vn -0.308844 0.033434 0.950525
vn 0.000000 -0.017314 0.999850
vn 0.000000 0.033434 0.999441
vn 0.308971 -0.017314 0.950914
vn 0.308844 0.033434 0.950525
vn 0.587697 -0.017314 0.808896
vn 0.587457 0.033434 0.808565
vn 0.808896 -0.017314 0.587697
vn 0.808565 0.033434 0.587457
vn 0.950914 -0.017314 0.308971
vn 0.950525 0.033434 0.308844
vn 0.999850 -0.017314 0.000001
vn 0.999441 0.033434 0.000001
vn 0.127618 -0.987480 -0.092720
vn 0.150024 -0.987480 -0.048746
vn 0.000000 -1.000000 -0.000000
vn 0.092720 -0.987480 -0.127618
vn 0.048746 -0.987480 -0.150024
vn -0.000000 -0.987480 -0.157744
vn -0.048746 -0.987480 -0.150024
vn -0.092720 -0.987480 -0.127618
vn -0.127618 -0.987480 -0.092720
vn -0.150024 -0.987480 -0.048746
vn -0.157745 -0.987480 0.000000
vn -0.150024 -0.987480 0.048746
vn -0.127618 -0.987480 0.092720
vn -0.092720 -0.987480 0.127618
vn -0.048746 -0.987480 0.150024
vn 0.000000 -0.987480 0.157745
vn 0.048746 -0.987480 0.150024
vn 0.092720 -0.987480 0.127618
vn 0.127618 -0.987480 0.092720
vn 0.150024 -0.987480 0.048746
vn 0.157744 -0.987480 0.000000
vn 0.243321 -0.966719 -0.079059
vn 0.206981 -0.966719 -0.150380
vn 0.835966 -0.476847 -0.271621
vn 0.711115 -0.476847 -0.516655
vn 0.668320 -0.711473 -0.217150
vn 0.568507 -0.711473 -0.413045
vn 0.321808 -0.836810 -0.442931
vn 0.516655 -0.476847 -0.711115
vn 0.169185 -0.836810 -0.520697
vn 0.271622 -0.476847 -0.835966
vn -0.000000 -0.966719 -0.255842
vn -0.000000 -0.476847 -0.878986
vn -0.000000 -0.711473 -0.702713
vn -0.079060 -0.966719 -0.243320
vn -0.271622 -0.476847 -0.835965
vn -0.217150 -0.711473 -0.668320
vn -0.150380 -0.966719 -0.206981
vn -0.567281 -0.261825 -0.780795
vn -0.413045 -0.711473 -0.568507
vn -0.413045 -0.711473 -0.568507
vn -0.206981 -0.966718 -0.150380
vn -0.711115 -0.476847 -0.516655
vn -0.568507 -0.711473 -0.413045
vn -0.243321 -0.966719 -0.079060
vn -0.835966 -0.476847 -0.271622
vn -0.668320 -0.711473 -0.217150
vn -0.255842 -0.966719 0.000000
vn -0.878986 -0.476847 0.000000
vn -0.702714 -0.711473 0.000000
vn -0.243321 -0.966719 0.079060
vn -0.835966 -0.476847 0.271622
vn -0.668320 -0.711473 0.217150
vn -0.442931 -0.836810 0.321808
vn -0.711115 -0.476847 0.516655
vn -0.321808 -0.836810 0.442931
vn -0.516655 -0.476847 0.711115
vn -0.169185 -0.836810 0.520697
vn -0.271622 -0.476847 0.835966
vn 0.000000 -0.836810 0.547493
vn 0.000000 -0.476847 0.878986
vn 0.169185 -0.836810 0.520697
vn 0.271622 -0.476847 0.835966
vn 0.321808 -0.836810 0.442931
vn 0.516655 -0.476847 0.711115
vn 0.442931 -0.836810 0.321808
vn 0.711115 -0.476847 0.516655
vn 0.243321 -0.966719 0.079060
vn 0.835966 -0.476847 0.271622
vn 0.668320 -0.711473 0.217150
vn 0.255842 -0.966719 0.000000
vn 0.878986 -0.476847 0.000001
vn 0.702714 -0.711473 0.000001
vn -0.501115 0.522648 -0.689726
vn -0.689726 0.522648 -0.501115
vn -0.635068 0.619512 -0.461403
vn -0.461404 0.619512 -0.635068
vn -0.263451 0.522649 -0.810822
vn -0.242574 0.619512 -0.746567
vn -0.000000 0.522649 -0.852548
vn -0.000000 0.619512 -0.784987
vn 0.263451 0.522649 -0.810822
vn 0.242573 0.619512 -0.746567
vn 0.501115 0.522649 -0.689726
vn 0.461403 0.619512 -0.635068
vn 0.689726 0.522649 -0.501115
vn 0.635068 0.619513 -0.461403
vn 0.810822 0.522649 -0.263451
vn 0.746568 0.619512 -0.242572
vn 0.852548 0.522649 0.000001
vn 0.784987 0.619512 0.000000
vn 0.810822 0.522649 0.263452
vn 0.746567 0.619512 0.242573
vn 0.689726 0.522648 0.501115
vn 0.635068 0.619512 0.461404
vn 0.501115 0.522649 0.689726
vn 0.461404 0.619512 0.635069
vn 0.263451 0.522649 0.810822
vn 0.242573 0.619512 0.746568
vn 0.000000 0.522648 0.852548
vn 0.000000 0.619512 0.784988
vn -0.263451 0.522649 0.810822
vn -0.242574 0.619512 0.746568
vn -0.501115 0.522648 0.689726
vn -0.461405 0.619512 0.635067
vn -0.689726 0.522649 0.501115
vn -0.635069 0.619512 0.461403
vn -0.810822 0.522649 0.263451
vn -0.746568 0.619511 0.242575
vn -0.852548 0.522648 -0.000000
vn -0.784988 0.619511 0.000000
vn -0.810822 0.522649 -0.263451
vn -0.746568 0.619512 -0.242573
vn -0.000000 0.328591 -0.944472
vn -0.291858 0.328591 -0.898246
vn 0.291858 0.328591 -0.898247
vn 0.555147 0.328591 -0.764094
vn 0.764094 0.328591 -0.555147
vn 0.898247 0.328591 -0.291857
vn 0.944472 0.328591 0.000001
vn 0.898247 0.328591 0.291858
vn 0.764094 0.328591 0.555147
vn 0.555147 0.328591 0.764094
vn 0.291858 0.328591 0.898246
vn 0.000000 0.328591 0.944472
vn -0.291858 0.328591 0.898247
vn -0.555147 0.328591 0.764094
vn -0.764094 0.328591 0.555147
vn -0.898247 0.328591 0.291858
vn -0.944472 0.328591 -0.000000
vn -0.898247 0.328591 -0.291858
vn -0.764094 0.328591 -0.555147
vn -0.555147 0.328591 -0.764094
s 1
g pCylinder1
usemtl initialShadingGroup
f 1/19/1 2/18/2 22/21/3
f 2/18/2 3/17/4 22/21/3
f 3/17/4 4/16/5 22/21/3
f 4/16/5 5/15/6 22/21/3
f 5/15/6 6/14/7 22/21/3
f 6/14/7 7/13/8 22/21/3
f 7/13/8 8/12/9 22/21/3
f 8/12/9 9/11/10 22/21/3
f 9/11/10 10/10/11 22/21/3
f 10/10/11 11/9/12 22/21/3
f 11/9/12 12/8/13 22/21/3
f 12/8/13 13/7/14 22/21/3
f 13/7/14 14/6/15 22/21/3
f 14/6/15 15/5/16 22/21/3
f 15/5/16 16/4/17 22/21/3
f 16/4/17 17/3/18 22/21/3
f 17/3/18 18/2/19 22/21/3
f 18/2/19 19/1/20 22/21/3
f 19/1/20 20/20/21 22/21/3
f 20/20/21 1/19/1 22/21/3
s 2
f 23/84/22 27/22/23 159/205/24 160/206/25
f 27/22/23 31/24/26 158/204/27 159/205/24
f 31/24/26 35/26/28 157/203/29 158/204/27
f 35/26/28 39/28/30 156/202/31 157/203/29
f 39/28/30 43/30/32 155/201/33 156/202/31
f 43/30/32 47/32/34 154/200/35 155/201/33
f 47/32/34 51/34/36 153/199/37 154/200/35
f 51/34/36 55/36/38 152/198/39 153/199/37
f 55/36/38 59/38/40 151/197/41 152/198/39
f 59/38/40 63/40/42 150/196/43 151/197/41
f 63/40/42 67/42/44 149/195/45 150/196/43
f 67/42/44 71/44/46 148/194/47 149/195/45
f 71/44/46 75/46/48 147/193/49 148/194/47
f 75/46/48 79/48/50 146/192/51 147/193/49
f 79/48/50 83/50/52 145/191/53 146/192/51
f 83/50/52 87/52/54 144/190/55 145/191/53
f 87/52/54 91/54/56 143/189/57 144/190/55
f 91/54/56 95/56/58 162/209/59 143/189/57
f 95/56/58 99/58/60 161/208/61 162/209/59
f 99/58/60 23/60/22 160/207/25 161/208/61
f 30/64/62 26/63/63 21/82/64
f 34/65/65 30/64/62 21/82/64
f 38/66/66 34/65/65 21/82/64
f 42/67/67 38/66/66 21/82/64
f 46/68/68 42/67/67 21/82/64
f 50/69/69 46/68/68 21/82/64
f 54/70/70 50/69/69 21/82/64
f 58/71/71 54/70/70 21/82/64
f 62/72/72 58/71/71 21/82/64
f 66/73/73 62/72/72 21/82/64
f 70/74/74 66/73/73 21/82/64
f 74/75/75 70/74/74 21/82/64
f 78/76/76 74/75/75 21/82/64
f 82/77/77 78/76/76 21/82/64
f 86/78/78 82/77/77 21/82/64
f 90/79/79 86/78/78 21/82/64
f 94/80/80 90/79/79 21/82/64
f 98/81/81 94/80/80 21/82/64
f 102/83/82 98/81/81 21/82/64
f 26/63/63 102/83/82 21/82/64
f 25/88/83 26/63/63 30/64/62 29/91/84
f 23/84/22 24/86/85 28/90/86 27/22/23
f 24/86/85 25/89/87 29/92/88 28/90/86
f 29/91/84 30/64/62 34/65/65 33/94/89
f 27/22/23 28/90/86 32/93/90 31/24/26
f 28/90/86 29/92/88 33/95/89 32/93/90
f 33/94/89 34/65/65 38/66/66 37/97/91
f 31/24/26 32/93/90 36/96/92 35/26/28
f 32/93/90 33/95/89 37/98/91 36/96/92
f 37/97/91 38/66/66 42/67/67 41/100/93
f 35/26/28 36/96/92 40/99/94 39/28/30
f 36/96/92 37/98/91 41/101/95 40/99/94
f 41/100/93 42/67/67 46/68/68 45/103/96
f 39/28/30 40/99/94 44/102/97 43/30/32
f 40/99/94 41/101/95 45/104/98 44/102/97
f 45/103/96 46/68/68 50/69/69 49/106/99
f 43/30/32 44/102/97 48/105/100 47/32/34
f 44/102/97 45/104/98 49/107/101 48/105/102
f 49/106/99 50/69/69 54/70/70 53/109/103
f 47/32/34 48/105/100 52/108/104 51/34/36
f 48/105/102 49/107/101 53/110/105 52/108/104
f 53/109/103 54/70/70 58/71/71 57/112/106
f 51/34/36 52/108/104 56/111/107 55/36/38
f 52/108/104 53/110/105 57/113/108 56/111/107
f 57/112/106 58/71/71 62/72/72 61/115/109
f 55/36/38 56/111/107 60/114/110 59/38/40
f 56/111/107 57/113/108 61/116/111 60/114/110
f 61/115/109 62/72/72 66/73/73 65/118/112
f 59/38/40 60/114/110 64/117/113 63/40/42
f 60/114/110 61/116/111 65/119/114 64/117/113
f 65/118/112 66/73/73 70/74/74 69/121/115
f 63/40/42 64/117/113 68/120/116 67/42/44
f 64/117/113 65/119/114 69/122/115 68/120/116
f 69/121/115 70/74/74 74/75/75 73/124/117
f 67/42/44 68/120/116 72/123/118 71/44/46
f 68/120/116 69/122/115 73/125/117 72/123/118
f 73/124/117 74/75/75 78/76/76 77/127/119
f 71/44/46 72/123/118 76/126/120 75/46/48
f 72/123/118 73/125/117 77/128/119 76/126/120
f 77/127/119 78/76/76 82/77/77 81/130/121
f 75/46/48 76/126/120 80/129/122 79/48/50
f 76/126/120 77/128/119 81/131/121 80/129/122
f 81/130/121 82/77/77 86/78/78 85/133/123
f 79/48/50 80/129/122 84/132/124 83/50/52
f 80/129/122 81/131/121 85/134/123 84/132/124
f 85/133/123 86/78/78 90/79/79 89/136/125
f 83/50/52 84/132/124 88/135/126 87/52/54
f 84/132/124 85/134/123 89/137/125 88/135/126
f 89/136/125 90/79/79 94/80/80 93/139/127
f 87/52/54 88/135/126 92/138/128 91/54/56
f 88/135/126 89/137/125 93/140/127 92/138/128
f 93/139/127 94/80/80 98/81/81 97/142/129
f 91/54/56 92/138/128 96/141/130 95/56/58
f 92/138/128 93/140/127 97/143/131 96/141/130
f 97/142/129 98/81/81 102/83/82 101/145/132
f 95/56/58 96/141/130 100/144/133 99/58/60
f 96/141/130 97/143/131 101/146/134 100/144/133
f 26/63/63 25/88/83 101/145/132 102/83/82
f 25/87/87 24/85/85 100/144/133 101/146/134
f 24/85/85 23/60/22 99/58/60 100/144/133
f 104/148/135 103/147/136 8/37/137 7/35/138
f 105/149/139 104/148/135 7/35/138 6/33/140
f 106/150/141 105/149/139 6/33/140 5/31/142
f 107/151/143 106/150/141 5/31/142 4/29/144
f 108/152/145 107/151/143 4/29/144 3/27/146
f 109/153/147 108/152/145 3/27/146 2/25/148
f 110/154/149 109/153/147 2/25/148 1/23/150
f 111/156/151 110/155/149 1/61/150 20/62/152
f 112/157/153 111/156/151 20/62/152 19/59/154
f 113/158/155 112/157/153 19/59/154 18/57/156
f 114/159/157 113/158/155 18/57/156 17/55/158
f 115/160/159 114/159/157 17/55/158 16/53/160
f 116/161/161 115/160/159 16/53/160 15/51/162
f 117/162/163 116/161/161 15/51/162 14/49/164
f 118/163/165 117/162/163 14/49/164 13/47/166
f 119/164/167 118/163/165 13/47/166 12/45/168
f 120/165/169 119/164/167 12/45/168 11/43/170
f 121/166/171 120/165/169 11/43/170 10/41/172
f 122/167/173 121/166/171 10/41/172 9/39/174
f 103/147/136 122/167/173 9/39/174 8/37/137
f 124/169/175 123/168/176 105/149/139 106/150/141
f 125/170/177 124/169/175 106/150/141 107/151/143
f 126/171/178 125/170/177 107/151/143 108/152/145
f 127/172/179 126/171/178 108/152/145 109/153/147
f 128/173/180 127/172/179 109/153/147 110/154/149
f 129/175/181 128/174/180 110/155/149 111/156/151
f 130/176/182 129/175/181 111/156/151 112/157/153
f 131/177/183 130/176/182 112/157/153 113/158/155
f 132/178/184 131/177/183 113/158/155 114/159/157
f 133/179/185 132/178/184 114/159/157 115/160/159
f 134/180/186 133/179/185 115/160/159 116/161/161
f 135/181/187 134/180/186 116/161/161 117/162/163
f 136/182/188 135/181/187 117/162/163 118/163/165
f 137/183/189 136/182/188 118/163/165 119/164/167
f 138/184/190 137/183/189 119/164/167 120/165/169
f 139/185/191 138/184/190 120/165/169 121/166/171
f 140/186/192 139/185/191 121/166/171 122/167/173
f 141/187/193 140/186/192 122/167/173 103/147/136
f 142/188/194 141/187/193 103/147/136 104/148/135
f 123/168/176 142/188/194 104/148/135 105/149/139
f 144/190/55 143/189/57 131/177/183 132/178/184
f 145/191/53 144/190/55 132/178/184 133/179/185
f 146/192/51 145/191/53 133/179/185 134/180/186
f 147/193/49 146/192/51 134/180/186 135/181/187
f 148/194/47 147/193/49 135/181/187 136/182/188
f 149/195/45 148/194/47 136/182/188 137/183/189
f 150/196/43 149/195/45 137/183/189 138/184/190
f 151/197/41 150/196/43 138/184/190 139/185/191
f 152/198/39 151/197/41 139/185/191 140/186/192
f 153/199/37 152/198/39 140/186/192 141/187/193
f 154/200/35 153/199/37 141/187/193 142/188/194
f 155/201/33 154/200/35 142/188/194 123/168/176
f 156/202/31 155/201/33 123/168/176 124/169/175
f 157/203/29 156/202/31 124/169/175 125/170/177
f 158/204/27 157/203/29 125/170/177 126/171/178
f 159/205/24 158/204/27 126/171/178 127/172/179
f 160/206/25 159/205/24 127/172/179 128/173/180
f 161/208/61 160/207/25 128/174/180 129/175/181
f 162/209/59 161/208/61 129/175/181 130/176/182
f 143/189/57 162/209/59 130/176/182 131/177/183
