<?xml version="1.0" encoding="utf-8"?>
<!-- Generator: Adobe Illustrator 23.1.0, SVG Export Plug-In . SVG Version: 6.00 Build 0)  -->
<svg version="1.1" id="Layer_1" xmlns="http://www.w3.org/2000/svg" xmlns:xlink="http://www.w3.org/1999/xlink" x="0px" y="0px"
	 viewBox="0 0 1024 5911" style="enable-background:new 0 0 1024 5911;" xml:space="preserve">
<style type="text/css">
	.st0{stroke:#000000;stroke-miterlimit:10;}
</style>
<polygon class="st0" points="467.5,5615.5 414.5,5644.5 360.5,5615.5 287.5,5741.5 414.5,5822.5 530.5,5740.5 "/>
<polygon class="st0" points="168.5,5654 275.5,5727 342,5607 161.5,5490 98.5,5538 98.5,5653.5 "/>
<polygon class="st0" points="549.07,5732.9 602.07,5703.9 656.07,5732.9 729.07,5606.9 602.07,5525.9 486.07,5607.9 "/>
<polygon class="st0" points="848.5,5689 741.5,5616 675,5736 855.5,5853 918.5,5805 918.5,5689.5 "/>
<polygon class="st0" points="468.5,5405.5 415.5,5434.5 361.5,5405.5 288.5,5531.5 415.5,5612.5 531.5,5530.5 "/>
<polygon class="st0" points="169.5,5444 276.5,5517 343,5397 162.5,5280 99.5,5328 99.5,5443.5 "/>
<polygon class="st0" points="550.07,5522.9 603.07,5493.9 657.07,5522.9 730.07,5396.9 603.07,5315.9 487.07,5397.9 "/>
<polygon class="st0" points="849.5,5479 742.5,5406 676,5526 856.5,5643 919.5,5595 919.5,5479.5 "/>
<polygon class="st0" points="467.5,5198.5 414.5,5227.5 360.5,5198.5 287.5,5324.5 414.5,5405.5 530.5,5323.5 "/>
<polygon class="st0" points="168.5,5237 275.5,5310 342,5190 161.5,5073 98.5,5121 98.5,5236.5 "/>
<polygon class="st0" points="549.07,5315.9 602.07,5286.9 656.07,5315.9 729.07,5189.9 602.07,5108.9 486.07,5190.9 "/>
<polygon class="st0" points="848.5,5272 741.5,5199 675,5319 855.5,5436 918.5,5388 918.5,5272.5 "/>
<polygon class="st0" points="467.5,4991.5 414.5,5020.5 360.5,4991.5 287.5,5117.5 414.5,5198.5 530.5,5116.5 "/>
<polygon class="st0" points="168.5,5030 275.5,5103 342,4983 161.5,4866 98.5,4914 98.5,5029.5 "/>
<polygon class="st0" points="549.07,5108.9 602.07,5079.9 656.07,5108.9 729.07,4982.9 602.07,4901.9 486.07,4983.9 "/>
<polygon class="st0" points="848.5,5065 741.5,4992 675,5112 855.5,5229 918.5,5181 918.5,5065.5 "/>
<polygon class="st0" points="468.5,4781.5 415.5,4810.5 361.5,4781.5 288.5,4907.5 415.5,4988.5 531.5,4906.5 "/>
<polygon class="st0" points="169.5,4820 276.5,4893 343,4773 162.5,4656 99.5,4704 99.5,4819.5 "/>
<polygon class="st0" points="550.07,4898.9 603.07,4869.9 657.07,4898.9 730.07,4772.9 603.07,4691.9 487.07,4773.9 "/>
<polygon class="st0" points="849.5,4855 742.5,4782 676,4902 856.5,5019 919.5,4971 919.5,4855.5 "/>
<polygon class="st0" points="467.5,4574.5 414.5,4603.5 360.5,4574.5 287.5,4700.5 414.5,4781.5 530.5,4699.5 "/>
<polygon class="st0" points="168.5,4613 275.5,4686 342,4566 161.5,4449 98.5,4497 98.5,4612.5 "/>
<polygon class="st0" points="549.07,4691.9 602.07,4662.9 656.07,4691.9 729.07,4565.9 602.07,4484.9 486.07,4566.9 "/>
<polygon class="st0" points="848.5,4648 741.5,4575 675,4695 855.5,4812 918.5,4764 918.5,4648.5 "/>
<polygon class="st0" points="467.5,4370.5 414.5,4399.5 360.5,4370.5 287.5,4496.5 414.5,4577.5 530.5,4495.5 "/>
<polygon class="st0" points="168.5,4409 275.5,4482 342,4362 161.5,4245 98.5,4293 98.5,4408.5 "/>
<polygon class="st0" points="549.07,4487.9 602.07,4458.9 656.07,4487.9 729.07,4361.9 602.07,4280.9 486.07,4362.9 "/>
<polygon class="st0" points="848.5,4444 741.5,4371 675,4491 855.5,4608 918.5,4560 918.5,4444.5 "/>
<polygon class="st0" points="468.5,4160.5 415.5,4189.5 361.5,4160.5 288.5,4286.5 415.5,4367.5 531.5,4285.5 "/>
<polygon class="st0" points="169.5,4199 276.5,4272 343,4152 162.5,4035 99.5,4083 99.5,4198.5 "/>
<polygon class="st0" points="550.07,4277.9 603.07,4248.9 657.07,4277.9 730.07,4151.9 603.07,4070.9 487.07,4152.9 "/>
<polygon class="st0" points="849.5,4234 742.5,4161 676,4281 856.5,4398 919.5,4350 919.5,4234.5 "/>
<polygon class="st0" points="467.5,3953.5 414.5,3982.5 360.5,3953.5 287.5,4079.5 414.5,4160.5 530.5,4078.5 "/>
<polygon class="st0" points="168.5,3992 275.5,4065 342,3945 161.5,3828 98.5,3876 98.5,3991.5 "/>
<polygon class="st0" points="549.07,4070.9 602.07,4041.9 656.07,4070.9 729.07,3944.9 602.07,3863.9 486.07,3945.9 "/>
<polygon class="st0" points="848.5,4027 741.5,3954 675,4074 855.5,4191 918.5,4143 918.5,4027.5 "/>
<polygon class="st0" points="467.5,3746.5 414.5,3775.5 360.5,3746.5 287.5,3872.5 414.5,3953.5 530.5,3871.5 "/>
<polygon class="st0" points="168.5,3785 275.5,3858 342,3738 161.5,3621 98.5,3669 98.5,3784.5 "/>
<polygon class="st0" points="549.07,3863.9 602.07,3834.9 656.07,3863.9 729.07,3737.9 602.07,3656.9 486.07,3738.9 "/>
<polygon class="st0" points="848.5,3820 741.5,3747 675,3867 855.5,3984 918.5,3936 918.5,3820.5 "/>
<polygon class="st0" points="468.5,3536.5 415.5,3565.5 361.5,3536.5 288.5,3662.5 415.5,3743.5 531.5,3661.5 "/>
<polygon class="st0" points="169.5,3575 276.5,3648 343,3528 162.5,3411 99.5,3459 99.5,3574.5 "/>
<polygon class="st0" points="550.07,3653.9 603.07,3624.9 657.07,3653.9 730.07,3527.9 603.07,3446.9 487.07,3528.9 "/>
<polygon class="st0" points="849.5,3610 742.5,3537 676,3657 856.5,3774 919.5,3726 919.5,3610.5 "/>
<polygon class="st0" points="467.5,3329.5 414.5,3358.5 360.5,3329.5 287.5,3455.5 414.5,3536.5 530.5,3454.5 "/>
<polygon class="st0" points="168.5,3368 275.5,3441 342,3321 161.5,3204 98.5,3252 98.5,3367.5 "/>
<polygon class="st0" points="549.07,3446.9 602.07,3417.9 656.07,3446.9 729.07,3320.9 602.07,3239.9 486.07,3321.9 "/>
<polygon class="st0" points="848.5,3403 741.5,3330 675,3450 855.5,3567 918.5,3519 918.5,3403.5 "/>
<polygon class="st0" points="466.5,3122.5 413.5,3151.5 359.5,3122.5 286.5,3248.5 413.5,3329.5 529.5,3247.5 "/>
<polygon class="st0" points="167.5,3161 274.5,3234 341,3114 160.5,2997 97.5,3045 97.5,3160.5 "/>
<polygon class="st0" points="548.07,3239.9 601.07,3210.9 655.07,3239.9 728.07,3113.9 601.07,3032.9 485.07,3114.9 "/>
<polygon class="st0" points="847.5,3196 740.5,3123 674,3243 854.5,3360 917.5,3312 917.5,3196.5 "/>
<polygon class="st0" points="467.5,2912.5 414.5,2941.5 360.5,2912.5 287.5,3038.5 414.5,3119.5 530.5,3037.5 "/>
<polygon class="st0" points="168.5,2951 275.5,3024 342,2904 161.5,2787 98.5,2835 98.5,2950.5 "/>
<polygon class="st0" points="549.07,3029.9 602.07,3000.9 656.07,3029.9 729.07,2903.9 602.07,2822.9 486.07,2904.9 "/>
<polygon class="st0" points="848.5,2986 741.5,2913 675,3033 855.5,3150 918.5,3102 918.5,2986.5 "/>
<polygon class="st0" points="466.5,2705.5 413.5,2734.5 359.5,2705.5 286.5,2831.5 413.5,2912.5 529.5,2830.5 "/>
<polygon class="st0" points="167.5,2744 274.5,2817 341,2697 160.5,2580 97.5,2628 97.5,2743.5 "/>
<polygon class="st0" points="548.07,2822.9 601.07,2793.9 655.07,2822.9 728.07,2696.9 601.07,2615.9 485.07,2697.9 "/>
<polygon class="st0" points="847.5,2779 740.5,2706 674,2826 854.5,2943 917.5,2895 917.5,2779.5 "/>
<polygon class="st0" points="466.5,2498.5 413.5,2527.5 359.5,2498.5 286.5,2624.5 413.5,2705.5 529.5,2623.5 "/>
<polygon class="st0" points="167.5,2537 274.5,2610 341,2490 160.5,2373 97.5,2421 97.5,2536.5 "/>
<polygon class="st0" points="548.07,2615.9 601.07,2586.9 655.07,2615.9 728.07,2489.9 601.07,2408.9 485.07,2490.9 "/>
<polygon class="st0" points="847.5,2572 740.5,2499 674,2619 854.5,2736 917.5,2688 917.5,2572.5 "/>
<polygon class="st0" points="467.5,2288.5 414.5,2317.5 360.5,2288.5 287.5,2414.5 414.5,2495.5 530.5,2413.5 "/>
<polygon class="st0" points="168.5,2327 275.5,2400 342,2280 161.5,2163 98.5,2211 98.5,2326.5 "/>
<polygon class="st0" points="549.07,2405.9 602.07,2376.9 656.07,2405.9 729.07,2279.9 602.07,2198.9 486.07,2280.9 "/>
<polygon class="st0" points="848.5,2362 741.5,2289 675,2409 855.5,2526 918.5,2478 918.5,2362.5 "/>
<polygon class="st0" points="466.5,2081.5 413.5,2110.5 359.5,2081.5 286.5,2207.5 413.5,2288.5 529.5,2206.5 "/>
<polygon class="st0" points="167.5,2120 274.5,2193 341,2073 160.5,1956 97.5,2004 97.5,2119.5 "/>
<polygon class="st0" points="548.07,2198.9 601.07,2169.9 655.07,2198.9 728.07,2072.9 601.07,1991.9 485.07,2073.9 "/>
<polygon class="st0" points="847.5,2155 740.5,2082 674,2202 854.5,2319 917.5,2271 917.5,2155.5 "/>
<polygon class="st0" points="466.5,1877.5 413.5,1906.5 359.5,1877.5 286.5,2003.5 413.5,2084.5 529.5,2002.5 "/>
<polygon class="st0" points="167.5,1916 274.5,1989 341,1869 160.5,1752 97.5,1800 97.5,1915.5 "/>
<polygon class="st0" points="548.07,1994.9 601.07,1965.9 655.07,1994.9 728.07,1868.9 601.07,1787.9 485.07,1869.9 "/>
<polygon class="st0" points="847.5,1951 740.5,1878 674,1998 854.5,2115 917.5,2067 917.5,1951.5 "/>
<polygon class="st0" points="467.5,1667.5 414.5,1696.5 360.5,1667.5 287.5,1793.5 414.5,1874.5 530.5,1792.5 "/>
<polygon class="st0" points="168.5,1706 275.5,1779 342,1659 161.5,1542 98.5,1590 98.5,1705.5 "/>
<polygon class="st0" points="549.07,1784.9 602.07,1755.9 656.07,1784.9 729.07,1658.9 602.07,1577.9 486.07,1659.9 "/>
<polygon class="st0" points="848.5,1741 741.5,1668 675,1788 855.5,1905 918.5,1857 918.5,1741.5 "/>
<polygon class="st0" points="466.5,1460.5 413.5,1489.5 359.5,1460.5 286.5,1586.5 413.5,1667.5 529.5,1585.5 "/>
<polygon class="st0" points="167.5,1499 274.5,1572 341,1452 160.5,1335 97.5,1383 97.5,1498.5 "/>
<polygon class="st0" points="548.07,1577.9 601.07,1548.9 655.07,1577.9 728.07,1451.9 601.07,1370.9 485.07,1452.9 "/>
<polygon class="st0" points="847.5,1534 740.5,1461 674,1581 854.5,1698 917.5,1650 917.5,1534.5 "/>
<polygon class="st0" points="466.5,1253.5 413.5,1282.5 359.5,1253.5 286.5,1379.5 413.5,1460.5 529.5,1378.5 "/>
<polygon class="st0" points="167.5,1292 274.5,1365 341,1245 160.5,1128 97.5,1176 97.5,1291.5 "/>
<polygon class="st0" points="548.07,1370.9 601.07,1341.9 655.07,1370.9 728.07,1244.9 601.07,1163.9 485.07,1245.9 "/>
<polygon class="st0" points="847.5,1327 740.5,1254 674,1374 854.5,1491 917.5,1443 917.5,1327.5 "/>
<polygon class="st0" points="467.5,1043.5 414.5,1072.5 360.5,1043.5 287.5,1169.5 414.5,1250.5 530.5,1168.5 "/>
<polygon class="st0" points="168.5,1082 275.5,1155 342,1035 161.5,918 98.5,966 98.5,1081.5 "/>
<polygon class="st0" points="549.07,1160.9 602.07,1131.9 656.07,1160.9 729.07,1034.9 602.07,953.9 486.07,1035.9 "/>
<polygon class="st0" points="848.5,1117 741.5,1044 675,1164 855.5,1281 918.5,1233 918.5,1117.5 "/>
<polygon class="st0" points="466.5,836.5 413.5,865.5 359.5,836.5 286.5,962.5 413.5,1043.5 529.5,961.5 "/>
<polygon class="st0" points="167.5,875 274.5,948 341,828 160.5,711 97.5,759 97.5,874.5 "/>
<polygon class="st0" points="548.07,953.9 601.07,924.9 655.07,953.9 728.07,827.9 601.07,746.9 485.07,828.9 "/>
<polygon class="st0" points="847.5,910 740.5,837 674,957 854.5,1074 917.5,1026 917.5,910.5 "/>
<polygon class="st0" points="467.5,629.5 414.5,658.5 360.5,629.5 287.5,755.5 414.5,836.5 530.5,754.5 "/>
<polygon class="st0" points="168.5,668 275.5,741 342,621 161.5,504 98.5,552 98.5,667.5 "/>
<polygon class="st0" points="549.07,746.9 602.07,717.9 656.07,746.9 729.07,620.9 602.07,539.9 486.07,621.9 "/>
<polygon class="st0" points="848.5,703 741.5,630 675,750 855.5,867 918.5,819 918.5,703.5 "/>
<polygon class="st0" points="466.5,422.5 413.5,451.5 359.5,422.5 286.5,548.5 413.5,629.5 529.5,547.5 "/>
<polygon class="st0" points="167.5,461 274.5,534 341,414 160.5,297 97.5,345 97.5,460.5 "/>
<polygon class="st0" points="548.07,539.9 601.07,510.9 655.07,539.9 728.07,413.9 601.07,332.9 485.07,414.9 "/>
<polygon class="st0" points="847.5,496 740.5,423 674,543 854.5,660 917.5,612 917.5,496.5 "/>
<polygon class="st0" points="467.5,221.5 414.5,250.5 360.5,221.5 287.5,347.5 414.5,428.5 530.5,346.5 "/>
<polygon class="st0" points="168.5,260 275.5,333 342,213 161.5,96 98.5,144 98.5,259.5 "/>
<polygon class="st0" points="549.07,338.9 602.07,309.9 656.07,338.9 729.07,212.9 602.07,131.9 486.07,213.9 "/>
<polygon class="st0" points="848.5,295 741.5,222 675,342 855.5,459 918.5,411 918.5,295.5 "/>
</svg>
