<?xml version="1.0" encoding="utf-8"?>
<!-- Generator: Adobe Illustrator 23.1.0, SVG Export Plug-In . SVG Version: 6.00 Build 0)  -->
<svg version="1.1" id="Layer_1" xmlns="http://www.w3.org/2000/svg" xmlns:xlink="http://www.w3.org/1999/xlink" x="0px" y="0px"
	 viewBox="0 0 1024 6003" style="enable-background:new 0 0 1024 6003;" xml:space="preserve">
<style type="text/css">
	.st0{stroke:#000000;stroke-miterlimit:10;}
</style>
<polygon class="st0" points="456.5,5744.5 403.5,5773.5 349.5,5744.5 276.5,5870.5 403.5,5951.5 519.5,5869.5 "/>
<polygon class="st0" points="157.5,5783 264.5,5856 331,5736 150.5,5619 87.5,5667 87.5,5782.5 "/>
<polygon class="st0" points="538.07,5861.9 591.07,5832.9 645.07,5861.9 718.07,5735.9 591.07,5654.9 475.07,5736.9 "/>
<polygon class="st0" points="837.5,5818 730.5,5745 664,5865 844.5,5982 907.5,5934 907.5,5818.5 "/>
<polygon class="st0" points="457.5,5534.5 404.5,5563.5 350.5,5534.5 277.5,5660.5 404.5,5741.5 520.5,5659.5 "/>
<polygon class="st0" points="158.5,5573 265.5,5646 332,5526 151.5,5409 88.5,5457 88.5,5572.5 "/>
<polygon class="st0" points="539.07,5651.9 592.07,5622.9 646.07,5651.9 719.07,5525.9 592.07,5444.9 476.07,5526.9 "/>
<polygon class="st0" points="838.5,5608 731.5,5535 665,5655 845.5,5772 908.5,5724 908.5,5608.5 "/>
<polygon class="st0" points="456.5,5327.5 403.5,5356.5 349.5,5327.5 276.5,5453.5 403.5,5534.5 519.5,5452.5 "/>
<polygon class="st0" points="157.5,5366 264.5,5439 331,5319 150.5,5202 87.5,5250 87.5,5365.5 "/>
<polygon class="st0" points="538.07,5444.9 591.07,5415.9 645.07,5444.9 718.07,5318.9 591.07,5237.9 475.07,5319.9 "/>
<polygon class="st0" points="837.5,5401 730.5,5328 664,5448 844.5,5565 907.5,5517 907.5,5401.5 "/>
<polygon class="st0" points="456.5,5120.5 403.5,5149.5 349.5,5120.5 276.5,5246.5 403.5,5327.5 519.5,5245.5 "/>
<polygon class="st0" points="157.5,5159 264.5,5232 331,5112 150.5,4995 87.5,5043 87.5,5158.5 "/>
<polygon class="st0" points="538.07,5237.9 591.07,5208.9 645.07,5237.9 718.07,5111.9 591.07,5030.9 475.07,5112.9 "/>
<polygon class="st0" points="837.5,5194 730.5,5121 664,5241 844.5,5358 907.5,5310 907.5,5194.5 "/>
<polygon class="st0" points="457.5,4910.5 404.5,4939.5 350.5,4910.5 277.5,5036.5 404.5,5117.5 520.5,5035.5 "/>
<polygon class="st0" points="158.5,4949 265.5,5022 332,4902 151.5,4785 88.5,4833 88.5,4948.5 "/>
<polygon class="st0" points="539.07,5027.9 592.07,4998.9 646.07,5027.9 719.07,4901.9 592.07,4820.9 476.07,4902.9 "/>
<polygon class="st0" points="838.5,4984 731.5,4911 665,5031 845.5,5148 908.5,5100 908.5,4984.5 "/>
<polygon class="st0" points="456.5,4703.5 403.5,4732.5 349.5,4703.5 276.5,4829.5 403.5,4910.5 519.5,4828.5 "/>
<polygon class="st0" points="157.5,4742 264.5,4815 331,4695 150.5,4578 87.5,4626 87.5,4741.5 "/>
<polygon class="st0" points="538.07,4820.9 591.07,4791.9 645.07,4820.9 718.07,4694.9 591.07,4613.9 475.07,4695.9 "/>
<polygon class="st0" points="837.5,4777 730.5,4704 664,4824 844.5,4941 907.5,4893 907.5,4777.5 "/>
<polygon class="st0" points="456.5,4499.5 403.5,4528.5 349.5,4499.5 276.5,4625.5 403.5,4706.5 519.5,4624.5 "/>
<polygon class="st0" points="157.5,4538 264.5,4611 331,4491 150.5,4374 87.5,4422 87.5,4537.5 "/>
<polygon class="st0" points="538.07,4616.9 591.07,4587.9 645.07,4616.9 718.07,4490.9 591.07,4409.9 475.07,4491.9 "/>
<polygon class="st0" points="837.5,4573 730.5,4500 664,4620 844.5,4737 907.5,4689 907.5,4573.5 "/>
<polygon class="st0" points="457.5,4289.5 404.5,4318.5 350.5,4289.5 277.5,4415.5 404.5,4496.5 520.5,4414.5 "/>
<polygon class="st0" points="158.5,4328 265.5,4401 332,4281 151.5,4164 88.5,4212 88.5,4327.5 "/>
<polygon class="st0" points="539.07,4406.9 592.07,4377.9 646.07,4406.9 719.07,4280.9 592.07,4199.9 476.07,4281.9 "/>
<polygon class="st0" points="838.5,4363 731.5,4290 665,4410 845.5,4527 908.5,4479 908.5,4363.5 "/>
<polygon class="st0" points="456.5,4082.5 403.5,4111.5 349.5,4082.5 276.5,4208.5 403.5,4289.5 519.5,4207.5 "/>
<polygon class="st0" points="157.5,4121 264.5,4194 331,4074 150.5,3957 87.5,4005 87.5,4120.5 "/>
<polygon class="st0" points="538.07,4199.9 591.07,4170.9 645.07,4199.9 718.07,4073.9 591.07,3992.9 475.07,4074.9 "/>
<polygon class="st0" points="837.5,4156 730.5,4083 664,4203 844.5,4320 907.5,4272 907.5,4156.5 "/>
<polygon class="st0" points="456.5,3875.5 403.5,3904.5 349.5,3875.5 276.5,4001.5 403.5,4082.5 519.5,4000.5 "/>
<polygon class="st0" points="157.5,3914 264.5,3987 331,3867 150.5,3750 87.5,3798 87.5,3913.5 "/>
<polygon class="st0" points="538.07,3992.9 591.07,3963.9 645.07,3992.9 718.07,3866.9 591.07,3785.9 475.07,3867.9 "/>
<polygon class="st0" points="837.5,3949 730.5,3876 664,3996 844.5,4113 907.5,4065 907.5,3949.5 "/>
<polygon class="st0" points="457.5,3665.5 404.5,3694.5 350.5,3665.5 277.5,3791.5 404.5,3872.5 520.5,3790.5 "/>
<polygon class="st0" points="158.5,3704 265.5,3777 332,3657 151.5,3540 88.5,3588 88.5,3703.5 "/>
<polygon class="st0" points="539.07,3782.9 592.07,3753.9 646.07,3782.9 719.07,3656.9 592.07,3575.9 476.07,3657.9 "/>
<polygon class="st0" points="838.5,3739 731.5,3666 665,3786 845.5,3903 908.5,3855 908.5,3739.5 "/>
<polygon class="st0" points="456.5,3458.5 403.5,3487.5 349.5,3458.5 276.5,3584.5 403.5,3665.5 519.5,3583.5 "/>
<polygon class="st0" points="157.5,3497 264.5,3570 331,3450 150.5,3333 87.5,3381 87.5,3496.5 "/>
<polygon class="st0" points="538.07,3575.9 591.07,3546.9 645.07,3575.9 718.07,3449.9 591.07,3368.9 475.07,3450.9 "/>
<polygon class="st0" points="837.5,3532 730.5,3459 664,3579 844.5,3696 907.5,3648 907.5,3532.5 "/>
<polygon class="st0" points="455.5,3251.5 402.5,3280.5 348.5,3251.5 275.5,3377.5 402.5,3458.5 518.5,3376.5 "/>
<polygon class="st0" points="156.5,3290 263.5,3363 330,3243 149.5,3126 86.5,3174 86.5,3289.5 "/>
<polygon class="st0" points="537.07,3368.9 590.07,3339.9 644.07,3368.9 717.07,3242.9 590.07,3161.9 474.07,3243.9 "/>
<polygon class="st0" points="836.5,3325 729.5,3252 663,3372 843.5,3489 906.5,3441 906.5,3325.5 "/>
<polygon class="st0" points="456.5,3041.5 403.5,3070.5 349.5,3041.5 276.5,3167.5 403.5,3248.5 519.5,3166.5 "/>
<polygon class="st0" points="157.5,3080 264.5,3153 331,3033 150.5,2916 87.5,2964 87.5,3079.5 "/>
<polygon class="st0" points="538.07,3158.9 591.07,3129.9 645.07,3158.9 718.07,3032.9 591.07,2951.9 475.07,3033.9 "/>
<polygon class="st0" points="837.5,3115 730.5,3042 664,3162 844.5,3279 907.5,3231 907.5,3115.5 "/>
<polygon class="st0" points="455.5,2834.5 402.5,2863.5 348.5,2834.5 275.5,2960.5 402.5,3041.5 518.5,2959.5 "/>
<polygon class="st0" points="156.5,2873 263.5,2946 330,2826 149.5,2709 86.5,2757 86.5,2872.5 "/>
<polygon class="st0" points="537.07,2951.9 590.07,2922.9 644.07,2951.9 717.07,2825.9 590.07,2744.9 474.07,2826.9 "/>
<polygon class="st0" points="836.5,2908 729.5,2835 663,2955 843.5,3072 906.5,3024 906.5,2908.5 "/>
<polygon class="st0" points="455.5,2627.5 402.5,2656.5 348.5,2627.5 275.5,2753.5 402.5,2834.5 518.5,2752.5 "/>
<polygon class="st0" points="156.5,2666 263.5,2739 330,2619 149.5,2502 86.5,2550 86.5,2665.5 "/>
<polygon class="st0" points="537.07,2744.9 590.07,2715.9 644.07,2744.9 717.07,2618.9 590.07,2537.9 474.07,2619.9 "/>
<polygon class="st0" points="836.5,2701 729.5,2628 663,2748 843.5,2865 906.5,2817 906.5,2701.5 "/>
<polygon class="st0" points="456.5,2417.5 403.5,2446.5 349.5,2417.5 276.5,2543.5 403.5,2624.5 519.5,2542.5 "/>
<polygon class="st0" points="157.5,2456 264.5,2529 331,2409 150.5,2292 87.5,2340 87.5,2455.5 "/>
<polygon class="st0" points="538.07,2534.9 591.07,2505.9 645.07,2534.9 718.07,2408.9 591.07,2327.9 475.07,2409.9 "/>
<polygon class="st0" points="837.5,2491 730.5,2418 664,2538 844.5,2655 907.5,2607 907.5,2491.5 "/>
<polygon class="st0" points="455.5,2210.5 402.5,2239.5 348.5,2210.5 275.5,2336.5 402.5,2417.5 518.5,2335.5 "/>
<polygon class="st0" points="156.5,2249 263.5,2322 330,2202 149.5,2085 86.5,2133 86.5,2248.5 "/>
<polygon class="st0" points="537.07,2327.9 590.07,2298.9 644.07,2327.9 717.07,2201.9 590.07,2120.9 474.07,2202.9 "/>
<polygon class="st0" points="836.5,2284 729.5,2211 663,2331 843.5,2448 906.5,2400 906.5,2284.5 "/>
<polygon class="st0" points="455.5,2006.5 402.5,2035.5 348.5,2006.5 275.5,2132.5 402.5,2213.5 518.5,2131.5 "/>
<polygon class="st0" points="156.5,2045 263.5,2118 330,1998 149.5,1881 86.5,1929 86.5,2044.5 "/>
<polygon class="st0" points="537.07,2123.9 590.07,2094.9 644.07,2123.9 717.07,1997.9 590.07,1916.9 474.07,1998.9 "/>
<polygon class="st0" points="836.5,2080 729.5,2007 663,2127 843.5,2244 906.5,2196 906.5,2080.5 "/>
<polygon class="st0" points="456.5,1796.5 403.5,1825.5 349.5,1796.5 276.5,1922.5 403.5,2003.5 519.5,1921.5 "/>
<polygon class="st0" points="157.5,1835 264.5,1908 331,1788 150.5,1671 87.5,1719 87.5,1834.5 "/>
<polygon class="st0" points="538.07,1913.9 591.07,1884.9 645.07,1913.9 718.07,1787.9 591.07,1706.9 475.07,1788.9 "/>
<polygon class="st0" points="837.5,1870 730.5,1797 664,1917 844.5,2034 907.5,1986 907.5,1870.5 "/>
<polygon class="st0" points="455.5,1589.5 402.5,1618.5 348.5,1589.5 275.5,1715.5 402.5,1796.5 518.5,1714.5 "/>
<polygon class="st0" points="156.5,1628 263.5,1701 330,1581 149.5,1464 86.5,1512 86.5,1627.5 "/>
<polygon class="st0" points="537.07,1706.9 590.07,1677.9 644.07,1706.9 717.07,1580.9 590.07,1499.9 474.07,1581.9 "/>
<polygon class="st0" points="836.5,1663 729.5,1590 663,1710 843.5,1827 906.5,1779 906.5,1663.5 "/>
<polygon class="st0" points="455.5,1382.5 402.5,1411.5 348.5,1382.5 275.5,1508.5 402.5,1589.5 518.5,1507.5 "/>
<polygon class="st0" points="156.5,1421 263.5,1494 330,1374 149.5,1257 86.5,1305 86.5,1420.5 "/>
<polygon class="st0" points="537.07,1499.9 590.07,1470.9 644.07,1499.9 717.07,1373.9 590.07,1292.9 474.07,1374.9 "/>
<polygon class="st0" points="836.5,1456 729.5,1383 663,1503 843.5,1620 906.5,1572 906.5,1456.5 "/>
<polygon class="st0" points="456.5,1172.5 403.5,1201.5 349.5,1172.5 276.5,1298.5 403.5,1379.5 519.5,1297.5 "/>
<polygon class="st0" points="157.5,1211 264.5,1284 331,1164 150.5,1047 87.5,1095 87.5,1210.5 "/>
<polygon class="st0" points="538.07,1289.9 591.07,1260.9 645.07,1289.9 718.07,1163.9 591.07,1082.9 475.07,1164.9 "/>
<polygon class="st0" points="837.5,1246 730.5,1173 664,1293 844.5,1410 907.5,1362 907.5,1246.5 "/>
<polygon class="st0" points="455.5,965.5 402.5,994.5 348.5,965.5 275.5,1091.5 402.5,1172.5 518.5,1090.5 "/>
<polygon class="st0" points="156.5,1004 263.5,1077 330,957 149.5,840 86.5,888 86.5,1003.5 "/>
<polygon class="st0" points="537.07,1082.9 590.07,1053.9 644.07,1082.9 717.07,956.9 590.07,875.9 474.07,957.9 "/>
<polygon class="st0" points="836.5,1039 729.5,966 663,1086 843.5,1203 906.5,1155 906.5,1039.5 "/>
<polygon class="st0" points="456.5,758.5 403.5,787.5 349.5,758.5 276.5,884.5 403.5,965.5 519.5,883.5 "/>
<polygon class="st0" points="157.5,797 264.5,870 331,750 150.5,633 87.5,681 87.5,796.5 "/>
<polygon class="st0" points="538.07,875.9 591.07,846.9 645.07,875.9 718.07,749.9 591.07,668.9 475.07,750.9 "/>
<polygon class="st0" points="837.5,832 730.5,759 664,879 844.5,996 907.5,948 907.5,832.5 "/>
<polygon class="st0" points="455.5,551.5 402.5,580.5 348.5,551.5 275.5,677.5 402.5,758.5 518.5,676.5 "/>
<polygon class="st0" points="156.5,590 263.5,663 330,543 149.5,426 86.5,474 86.5,589.5 "/>
<polygon class="st0" points="537.07,668.9 590.07,639.9 644.07,668.9 717.07,542.9 590.07,461.9 474.07,543.9 "/>
<polygon class="st0" points="836.5,625 729.5,552 663,672 843.5,789 906.5,741 906.5,625.5 "/>
<polygon class="st0" points="456.5,350.5 403.5,379.5 349.5,350.5 276.5,476.5 403.5,557.5 519.5,475.5 "/>
<polygon class="st0" points="157.5,389 264.5,462 331,342 150.5,225 87.5,273 87.5,388.5 "/>
<polygon class="st0" points="538.07,467.9 591.07,438.9 645.07,467.9 718.07,341.9 591.07,260.9 475.07,342.9 "/>
<polygon class="st0" points="837.5,424 730.5,351 664,471 844.5,588 907.5,540 907.5,424.5 "/>
<polygon class="st0" points="457.5,149.5 404.5,178.5 350.5,149.5 277.5,275.5 404.5,356.5 520.5,274.5 "/>
<polygon class="st0" points="158.5,188 265.5,261 332,141 151.5,24 88.5,72 88.5,187.5 "/>
<polygon class="st0" points="539.07,266.9 592.07,237.9 646.07,266.9 719.07,140.9 592.07,59.9 476.07,141.9 "/>
<polygon class="st0" points="838.5,223 731.5,150 665,270 845.5,387 908.5,339 908.5,223.5 "/>
</svg>
