<?xml version="1.0" encoding="utf-8"?>
<!-- Generator: Adobe Illustrator 23.1.0, SVG Export Plug-In . SVG Version: 6.00 Build 0)  -->
<svg version="1.1" id="Layer_1" xmlns="http://www.w3.org/2000/svg" xmlns:xlink="http://www.w3.org/1999/xlink" x="0px" y="0px"
	 viewBox="0 0 1024 1024" style="enable-background:new 0 0 1024 1024;" xml:space="preserve">
<style type="text/css">
	.st0{stroke:#000000;stroke-miterlimit:10;}
</style>
<polygon class="st0" points="467.5,728.5 414.5,757.5 360.5,728.5 287.5,854.5 414.5,935.5 530.5,853.5 "/>
<polygon class="st0" points="168.5,767 275.5,840 342,720 161.5,603 98.5,651 98.5,766.5 "/>
<polygon class="st0" points="549.07,845.9 602.07,816.9 656.07,845.9 729.07,719.9 602.07,638.9 486.07,720.9 "/>
<polygon class="st0" points="848.5,802 741.5,729 675,849 855.5,966 918.5,918 918.5,802.5 "/>
<polygon class="st0" points="468.5,518.5 415.5,547.5 361.5,518.5 288.5,644.5 415.5,725.5 531.5,643.5 "/>
<polygon class="st0" points="169.5,557 276.5,630 343,510 162.5,393 99.5,441 99.5,556.5 "/>
<polygon class="st0" points="550.07,635.9 603.07,606.9 657.07,635.9 730.07,509.9 603.07,428.9 487.07,510.9 "/>
<polygon class="st0" points="849.5,592 742.5,519 676,639 856.5,756 919.5,708 919.5,592.5 "/>
<polygon class="st0" points="467.5,311.5 414.5,340.5 360.5,311.5 287.5,437.5 414.5,518.5 530.5,436.5 "/>
<polygon class="st0" points="168.5,350 275.5,423 342,303 161.5,186 98.5,234 98.5,349.5 "/>
<polygon class="st0" points="549.07,428.9 602.07,399.9 656.07,428.9 729.07,302.9 602.07,221.9 486.07,303.9 "/>
<polygon class="st0" points="848.5,385 741.5,312 675,432 855.5,549 918.5,501 918.5,385.5 "/>
</svg>
