# This file uses centimeters as units for non-parametric coordinates.

mtllib GoliathHull.mtl
g default
v -1.113322 0.698966 -1.981861
v -1.113322 0.698966 1.220970
v -1.113322 2.151476 -1.420460
v -1.113322 1.478694 1.220970
v 1.093079 2.151476 -1.420460
v 1.093079 1.478694 1.220970
v 1.093079 0.698966 -1.981861
v 1.093079 0.698966 1.220970
v -1.113322 1.791793 -0.382344
v 1.093079 1.791793 -0.382344
v 1.093079 0.698966 -0.382344
v -1.113322 0.698966 -0.382344
v -1.113322 0.956065 -2.371856
v 1.093079 0.956065 -2.371856
v 1.093079 0.991165 -0.382344
v 1.093079 0.991165 1.948169
v -1.113322 0.991165 1.948169
v -1.113322 0.991165 -0.382344
v 1.093079 0.991165 1.220971
v -1.113322 0.991165 1.220971
v -1.113322 1.791793 -0.382344
v -1.113322 1.791793 1.220970
v 1.093079 1.791793 1.220970
v 1.093079 1.791793 -0.382344
v 1.093079 1.260897 1.708107
v -1.113322 1.260897 1.708107
v 1.093079 1.390443 -2.368563
v 1.093079 1.493003 -0.382344
v -1.113322 1.493003 -0.382344
v -1.113322 1.390443 -2.368563
v -1.113322 1.493426 -0.382344
v 1.093079 1.493003 -0.382344
vt 0.375000 0.000000
vt 0.625000 0.000000
vt 0.375000 0.250000
vt 0.625000 0.250000
vt 0.250000 0.375000
vt 0.625000 0.500000
vt 0.375000 0.750000
vt 0.625000 0.750000
vt 0.375000 1.000000
vt 0.625000 1.000000
vt 0.875000 0.000000
vt 0.875000 0.250000
vt 0.125000 0.000000
vt 0.499573 0.250000
vt 0.499573 0.500000
vt 0.499573 0.750000
vt 0.499573 0.000000
vt 0.499573 1.000000
vt 0.375000 0.128118
vt 0.125000 0.128118
vt 0.375000 0.621882
vt 0.499573 0.621882
vt 0.625000 0.621882
vt 0.875000 0.128118
vt 0.625000 0.128118
vt 0.499573 0.128118
vt 0.600440 0.621882
vt 0.600440 0.128118
vt 0.499573 0.250000
vt 0.625000 0.250000
vt 0.625000 0.500000
vt 0.499573 0.500000
vt 0.875000 0.229534
vt 0.625000 0.229534
vt 0.125000 0.204514
vt 0.375000 0.545486
vt 0.499573 0.545486
vt 0.499573 0.204514
vt 0.375000 0.204514
vt 0.499573 0.204578
vt 0.499573 0.564784
vn -1.000000 0.000000 0.000000
vn -1.000000 0.000000 0.000000
vn -1.000000 0.000000 0.000000
vn -1.000000 0.000000 0.000000
vn 1.000000 0.000000 -0.000000
vn 1.000000 0.000000 -0.000000
vn 1.000000 0.000000 -0.000000
vn 1.000000 0.000000 -0.000000
vn 0.000000 -1.000000 0.000000
vn -0.000000 -1.000000 -0.000000
vn -0.000000 -1.000000 -0.000000
vn 0.000000 -1.000000 0.000000
vn 0.000000 -0.927895 0.372841
vn 0.000000 -0.927895 0.372841
vn 0.000000 -0.927895 0.372841
vn 0.000000 -0.927895 0.372841
vn -0.000000 -0.834902 -0.550399
vn -0.000000 -0.834902 -0.550399
vn -0.000000 -0.488099 -0.872789
vn -0.000000 -0.488099 -0.872789
vn 1.000000 0.000000 -0.000000
vn 1.000000 0.000000 -0.000000
vn -0.000000 -1.000000 -0.000000
vn -0.000000 -1.000000 -0.000000
vn -1.000000 0.000000 0.000000
vn -1.000000 0.000000 0.000000
vn -1.000000 0.000000 0.000000
vn -0.000000 0.622724 -0.782441
vn -0.000000 0.622724 -0.782441
vn 1.000000 0.000000 -0.000000
vn 1.000000 0.000000 -0.000000
vn -1.000000 0.000000 0.000000
vn -1.000000 0.000000 0.000000
vn 1.000000 0.000000 -0.000000
vn 0.000000 0.000000 1.000000
vn 0.000000 0.000000 1.000000
vn 0.000000 0.000000 1.000000
vn 0.000000 0.000000 1.000000
vn 0.000000 0.912910 0.408160
vn 0.000000 0.912910 0.408160
vn 0.000000 0.912910 0.408160
vn 0.000000 0.912910 0.408160
vn 1.000000 0.000000 -0.000000
vn 1.000000 0.000000 -0.000000
vn -1.000000 0.000000 0.000000
vn -1.000000 0.000000 0.000000
vn -0.000000 0.779845 -0.625973
vn -0.000000 0.779845 -0.625973
vn 0.000000 0.664828 0.746997
vn 0.000000 0.664828 0.746997
vn 0.000000 0.664828 0.746997
vn 0.000000 0.664828 0.746997
vn -1.000000 0.000000 0.000000
vn -1.000000 0.000000 0.000000
vn -1.000000 0.000000 0.000000
vn -1.000000 0.000000 0.000000
vn -1.000000 0.000000 0.000000
vn -1.000000 0.000000 0.000000
vn -1.000000 0.000000 0.000000
vn -1.000000 0.000000 0.000000
vn 1.000000 0.000000 -0.000000
vn 1.000000 0.000000 -0.000000
vn 1.000000 0.000000 -0.000000
vn 1.000000 0.000000 -0.000000
vn 1.000000 0.000000 -0.000000
vn 1.000000 0.000000 -0.000000
vn 1.000000 0.000000 -0.000000
vn 1.000000 0.000000 -0.000000
vn 1.000000 -0.000000 -0.000000
vn 1.000000 -0.000000 -0.000000
vn 1.000000 -0.000000 -0.000000
vn 1.000000 -0.000000 -0.000000
vn -1.000000 0.000000 0.000000
vn -1.000000 0.000000 0.000000
vn -1.000000 0.000000 0.000000
vn -1.000000 0.000000 0.000000
vn 0.000000 0.944892 0.327383
vn 0.000000 0.944892 0.327383
vn 0.000000 0.944892 0.327383
vn 0.000000 0.944892 0.327383
vn 0.000000 1.000000 0.000000
vn 0.000000 1.000000 0.000000
vn 0.000000 1.000000 0.000000
vn 0.000000 1.000000 0.000000
s 1
g Hull Hull_Tracks
usemtl initialShadingGroup
f 1/1/1 12/17/2 18/26/3 13/19/4
s 2
f 14/21/5 15/22/6 11/16/7 7/7/8
s 3
f 7/7/9 11/16/10 12/18/11 1/9/12
s off
f 2/2/13 8/11/14 16/24/15 17/25/16
s 4
f 7/13/17 1/1/18 13/19/19 14/20/20
s 2
f 11/16/7 15/22/6 19/27/21 8/8/22
s 3
f 12/18/11 11/16/10 8/8/23 2/10/24
s 1
f 20/28/25 2/2/26 17/25/27
s 4
f 14/20/20 13/19/19 30/39/28 27/35/29
s 2
f 27/36/30 28/37/31 15/22/6 14/21/5
s 1
f 13/19/4 18/26/3 29/38/32 30/39/33
s 2
f 8/8/22 19/27/21 16/23/34
s 1
f 18/26/3 12/17/2 2/2/26 20/28/25
s off
f 4/4/35 6/6/36 23/31/37 22/30/38
f 26/34/39 25/33/40 6/12/41 4/4/42
s 2
f 5/5/43 10/15/44 28/37/31 27/36/30
s 1
f 30/39/33 29/38/32 9/14/45 3/3/46
s 4
f 27/35/29 30/39/28 3/3/47 5/5/48
s off
f 17/25/49 16/24/50 25/33/51 26/34/52
f 4/4/53 31/40/54 18/26/55 20/28/56
f 20/28/57 17/25/58 26/34/59 4/4/60
f 25/33/61 16/23/62 19/27/63 6/12/64
f 32/41/65 6/6/66 19/27/67 15/22/68
f 24/32/69 23/31/70 6/6/71 32/41/72
f 22/30/73 21/29/74 31/40/75 4/4/76
f 3/3/77 9/14/78 10/15/79 5/5/80
f 22/30/81 23/31/82 10/15/83 9/14/84
g default
v 1.851814 0.948081 -2.556371
v 1.851814 0.490044 1.928159
v 1.851814 1.286270 2.098928
v 1.092538 1.286270 2.098928
v 1.092538 0.948081 -2.556371
v 1.092538 0.490044 1.928159
v 1.851814 2.277079 -1.455012
v 1.092538 2.277079 -1.455012
v 1.092538 0.490044 -2.022301
v 1.851814 0.490044 -2.022301
v 1.851814 1.415341 -2.556371
v 1.092538 1.415341 -2.556371
v 1.092538 1.479242 -1.468399
v 1.092538 0.786818 2.432016
v 1.851814 0.786818 2.432016
v 1.851814 1.479242 -1.468399
vt 0.375000 0.000000
vt 0.375000 0.125137
vt 0.436047 0.125137
vt 0.436047 0.000000
vt 0.375000 0.624863
vt 0.375000 0.750000
vt 0.436047 0.750000
vt 0.436047 0.624863
vt 0.375000 1.000000
vt 0.436047 1.000000
vt 0.625000 0.000000
vt 0.625000 0.125137
vt 0.875000 0.125137
vt 0.875000 0.000000
vt 0.125000 0.000000
vt 0.125000 0.125137
vt 0.436047 0.250000
vt 0.436047 0.500000
vt 0.625000 0.500000
vt 0.625000 0.250000
vt 0.625000 0.750000
vt 0.625000 0.624863
vt 0.625000 1.000000
vt 0.875000 0.250000
vn 1.000000 0.000000 0.000000
vn 1.000000 0.000000 0.000000
vn 1.000000 -0.000000 -0.000000
vn 1.000000 0.000000 -0.000000
vn -1.000000 0.000000 -0.000000
vn -1.000000 0.000000 -0.000000
vn -1.000000 0.000000 -0.000000
vn -1.000000 0.000000 0.000000
vn -0.000000 -0.759072 -0.651007
vn -0.000000 -0.759072 -0.651007
vn -0.000000 -0.994824 -0.101609
vn -0.000000 -0.994824 -0.101609
vn 0.000000 -0.861645 0.507512
vn 0.000000 -0.209704 0.977765
vn 0.000000 -0.209704 0.977765
vn 0.000000 -0.861645 0.507512
vn -0.000000 0.000000 -1.000000
vn -0.000000 0.000000 -1.000000
vn -0.000000 0.000000 -1.000000
vn -0.000000 0.000000 -1.000000
vn 0.000000 0.963266 0.268550
vn 0.000000 0.963266 0.268550
vn 0.000000 0.963266 0.268550
vn 0.000000 0.963266 0.268550
vn -1.000000 0.000000 -0.000000
vn -1.000000 0.000000 -0.000000
vn 0.000000 -1.000000 0.000000
vn 0.000000 -1.000000 0.000000
vn 1.000000 -0.000000 -0.000000
vn 1.000000 0.000000 -0.000000
vn -1.000000 0.000000 0.000000
vn -1.000000 0.000000 0.000000
vn 0.000000 0.554839 0.831958
vn 0.000000 0.554839 0.831958
vn 1.000000 -0.000000 -0.000000
vn 1.000000 -0.000000 -0.000000
vn -0.000000 0.787573 -0.616221
vn -0.000000 0.787573 -0.616221
vn -0.000000 0.787573 -0.616221
vn -0.000000 0.787573 -0.616221
vn 1.000000 -0.000000 -0.000000
vn 1.000000 -0.000000 -0.000000
vn 1.000000 -0.000000 -0.000000
vn -1.000000 0.000000 -0.000000
vn -1.000000 0.000000 -0.000000
vn -1.000000 0.000000 -0.000000
s 1
g Hull_Tracks TrackL
usemtl initialShadingGroup
f 33/42/85 43/43/86 48/44/87 42/45/88
s 2
f 44/46/89 37/47/90 41/48/91 45/49/92
s 3
f 37/47/93 33/50/94 42/51/95 41/48/96
s 4
f 34/52/97 47/53/98 46/54/99 38/55/100
s off
f 37/56/101 44/57/102 43/43/103 33/42/104
f 39/58/105 40/59/106 36/60/107 35/61/108
s 2
f 41/48/91 38/62/109 46/63/110 45/49/92
s 3
f 42/51/95 34/64/111 38/62/112 41/48/96
s 1
f 48/44/87 47/53/113 34/52/114 42/45/88
s 2
f 46/63/110 36/60/115 40/59/116 45/49/92
s 4
f 47/53/98 35/61/117 36/65/118 46/54/99
s 1
f 39/58/119 35/61/120 47/53/113 48/44/87
s off
f 39/58/121 43/43/122 44/57/123 40/59/124
f 39/58/125 48/44/126 43/43/127
f 45/49/128 40/59/129 44/57/130
g default
v -1.871541 0.948081 -2.556371
v -1.871541 0.490044 1.928159
v -1.871541 1.286270 2.098928
v -1.112265 1.286270 2.098928
v -1.112265 0.948081 -2.556371
v -1.112265 0.490044 1.928159
v -1.871541 2.277079 -1.455012
v -1.112265 2.277079 -1.455012
v -1.112265 0.490044 -2.022301
v -1.871541 0.490044 -2.022301
v -1.871541 1.415341 -2.556371
v -1.112265 1.415341 -2.556371
v -1.112265 1.479242 -1.468399
v -1.112265 0.786818 2.432016
v -1.871541 0.786818 2.432016
v -1.871541 1.479242 -1.468399
vt 0.375000 0.000000
vt 0.436047 0.000000
vt 0.436047 0.125137
vt 0.375000 0.125137
vt 0.375000 0.624863
vt 0.436047 0.624863
vt 0.436047 0.750000
vt 0.375000 0.750000
vt 0.436047 1.000000
vt 0.375000 1.000000
vt 0.625000 0.000000
vt 0.875000 0.000000
vt 0.875000 0.125137
vt 0.625000 0.125137
vt 0.125000 0.000000
vt 0.125000 0.125137
vt 0.436047 0.250000
vt 0.625000 0.250000
vt 0.625000 0.500000
vt 0.436047 0.500000
vt 0.625000 0.624863
vt 0.625000 0.750000
vt 0.625000 1.000000
vt 0.875000 0.250000
vn -1.000000 0.000000 0.000000
vn -1.000000 0.000000 -0.000000
vn -1.000000 -0.000000 -0.000000
vn -1.000000 0.000000 0.000000
vn 1.000000 0.000000 -0.000000
vn 1.000000 0.000000 0.000000
vn 1.000000 0.000000 -0.000000
vn 1.000000 0.000000 -0.000000
vn -0.000000 -0.759072 -0.651007
vn -0.000000 -0.994824 -0.101609
vn -0.000000 -0.994824 -0.101609
vn -0.000000 -0.759072 -0.651007
vn 0.000000 -0.861645 0.507512
vn 0.000000 -0.861645 0.507512
vn 0.000000 -0.209704 0.977765
vn 0.000000 -0.209704 0.977765
vn -0.000000 0.000000 -1.000000
vn -0.000000 0.000000 -1.000000
vn -0.000000 0.000000 -1.000000
vn -0.000000 0.000000 -1.000000
vn 0.000000 0.963266 0.268550
vn 0.000000 0.963266 0.268550
vn 0.000000 0.963266 0.268550
vn 0.000000 0.963266 0.268550
vn 1.000000 0.000000 -0.000000
vn 1.000000 0.000000 -0.000000
vn 0.000000 -1.000000 0.000000
vn 0.000000 -1.000000 0.000000
vn -1.000000 0.000000 -0.000000
vn -1.000000 -0.000000 -0.000000
vn 1.000000 0.000000 0.000000
vn 1.000000 0.000000 0.000000
vn 0.000000 0.554839 0.831958
vn 0.000000 0.554839 0.831958
vn -1.000000 -0.000000 -0.000000
vn -1.000000 -0.000000 -0.000000
vn -0.000000 0.787573 -0.616221
vn -0.000000 0.787573 -0.616221
vn -0.000000 0.787573 -0.616221
vn -0.000000 0.787573 -0.616221
vn -1.000000 -0.000000 0.000000
vn -1.000000 -0.000000 0.000000
vn -1.000000 -0.000000 0.000000
vn 1.000000 0.000000 -0.000000
vn 1.000000 0.000000 -0.000000
vn 1.000000 0.000000 -0.000000
s 1
g Hull_Tracks pCube4 TrackR
usemtl initialShadingGroup
f 49/66/131 58/67/132 64/68/133 59/69/134
s 2
f 60/70/135 61/71/136 57/72/137 53/73/138
s 3
f 53/73/139 57/72/140 58/74/141 49/75/142
s 4
f 50/76/143 54/77/144 62/78/145 63/79/146
s off
f 53/80/147 49/66/148 59/69/149 60/81/150
f 55/82/151 51/83/152 52/84/153 56/85/154
s 2
f 57/72/137 61/71/136 62/86/155 54/87/156
s 3
f 58/74/141 57/72/140 54/87/157 50/88/158
s 1
f 64/68/133 58/67/132 50/76/159 63/79/160
s 2
f 62/86/155 61/71/136 56/85/161 52/84/162
s 4
f 63/79/146 62/78/145 52/89/163 51/83/164
s 1
f 55/82/165 64/68/133 63/79/160 51/83/166
s off
f 55/82/167 56/85/168 60/81/169 59/69/170
f 55/82/171 59/69/172 64/68/173
f 61/71/174 60/81/175 56/85/176
